{"title":"Shoot.Em.Up-Dual.Audio(hindi-eng)DVDRip.aaaevilacharya ","uid":5855225,"size":716923235,"categoryP":"video","categoryS":"movies","magnet":"?xt=urn:btih:bcfe2693e2a3cdec58ff2ff7a7cd0880eb661b88&amp;dn=Shoot.Em.Up-Dual.Audio%28hindi-eng%29DVDRip.aaaevilacharya+&amp;tr=udp%3A%2F%2Ftracker.openbittorrent.com%3A80&amp;tr=udp%3A%2F%2Fopen.demonii.com%3A1337&amp;tr=udp%3A%2F%2Ftracker.coppersurfer.tk%3A6969&amp;tr=udp%3A%2F%2Fexodus.desync.com%3A6969","seeders":0,"leechers":1,"uploader":"achaevil","files":1,"time":1285580900,"description":"General\nComplete name : Shoot.Em.Up-Dual.Audio(hindi-eng)DVDRip.aaaevilacharya\nFormat : Matroska\nFile size : 684 MiB\nDuration : 1h 26mn\nOverall bit rate : 1 105 Kbps\nEncoded date : UTC 2010-09-27 17:21:34\nWriting library : libebml v0.7.7 + libmatroska v0.8.1\n\nVideo\nID : 1\nFormat : MPEG-4 Visual\nFormat profile : Simple@L1\nFormat settings, BVOP : No\nFormat settings, QPel : No\nFormat settings, GMC : No warppoints\nFormat settings, Matrix : Default (H.263)\nCodec ID : DX50\nCodec ID/Hint : DivX 5\nDuration : 1h 26mn\nBit rate : 859 Kbps\nWidth : 702 pixels\nHeight : 292 pixels\nDisplay aspect ratio : 2.35:1\nOriginal display aspect ratio : 2.40:1\nFrame rate : 23.976 fps\nColor space : YUV\nChroma subsampling : 4:2:0\nBit depth : 8 bits\nScan type : Interlaced\nScan order : Top Field First\nBits/(Pixel*Frame) : 0.175\nStream size : 531 MiB (78%)\nTitle : aaaevilacharya\nWriting library : Lavc52.30.1\nLanguage : Hindi\n\nAudio #1\nID : 2\nFormat : MPEG Audio\nFormat version : Version 1\nFormat profile : Layer 3\nMode : Joint stereo\nMode extension : MS Stereo\nCodec ID : A_MPEG/L3\nCodec ID/Hint : MP3\nDuration : 1h 26mn\nBit rate mode : Constant\nBit rate : 112 Kbps\nChannel(s) : 2 channels\nSampling rate : 32.0 KHz\nStream size : 69.3 MiB (10%)\nTitle : (H)aaaevilacharya\nWriting library : LAME3.97 (beta)\nLanguage : Hindi\n\nAudio #2\nID : 3\nFormat : MPEG Audio\nFormat version : Version 1\nFormat profile : Layer 3\nMode : Joint stereo\nCodec ID : A_MPEG/L3\nCodec ID/Hint : MP3\nDuration : 1h 26mn\nBit rate mode : Constant\nBit rate : 112 Kbps\nChannel(s) : 2 channels\nSampling rate : 32.0 KHz\nStream size : 69.3 MiB (10%)\nTitle : (E)aaaevilacharya\nLanguage : English\n","torrent":{"xt":"urn:btih:bcfe2693e2a3cdec58ff2ff7a7cd0880eb661b88","amp;dn":"Shoot.Em.Up-Dual.Audio%28hindi-eng%29DVDRip.aaaevilacharya+","amp;tr":["udp%3A%2F%2Ftracker.openbittorrent.com%3A80","udp%3A%2F%2Fopen.demonii.com%3A1337","udp%3A%2F%2Ftracker.coppersurfer.tk%3A6969","udp%3A%2F%2Fexodus.desync.com%3A6969"],"infoHash":"bcfe2693e2a3cdec58ff2ff7a7cd0880eb661b88","infoHashBuffer":{"type":"Buffer","data":[188,254,38,147,226,163,205,236,88,255,47,247,167,205,8,128,235,102,27,136]},"announce":[],"urlList":[]}}